# xmcd
#
# Track frame offsets:
#	150
#	17185
#	40496
#	55939
#	69238
#	88373
#	103017
#	117158
#	135597
#	152862
#	179202
#	190001
#
# Disc length: 2618 seconds
#
# Revision: 0
# Processed by: cddbd v1.5.2PL0 Copyright (c) Steve Scherf et al.
# Submitted via: EasyCDDAExtractor 16.0.6.1
#
DISCID=ab0a380c
DTITLE=Συλλογικός δίσκος - Νησιώτικα-Victory 1
DYEAR=2003
DGENRE=Παραδοσιακή
TTITLE0=Κορρέ Λέττα - Αρμενάκι [παραδοσιακό]
TTITLE1=Χατζηδάκη Δικαία - Ο κόσμος με κατηγορεί [παραδοσιακό]
TTITLE2=Κατράκος Βασίλειος - Σεριφιωτοπούλα [παραδοσιακό]
TTITLE3=Μάγκελ Έλενα - Τ' ορκίζεσαι μωρό μου [παραδοσιακό]
TTITLE4=Σκουλαξινού Μαρία - Ο ποταμός [παραδοσιακό]
TTITLE5=Μάγκελ Έλενα - Μικρή νησιωτοπούλα [παραδοσιακό]
TTITLE6=Χατζηδάκη Αιμιλία - Με το φεγγάρι περπατώ [παραδοσιακό]
TTITLE7=Κουκουλάρη Νίκη - Θερμιώτικο [παραδοσιακό]
TTITLE8=Κατράκος Βασίλειος - Πες μου γαρυφαλλάκι μου [παραδοσιακό]
TTITLE9=Άνευ ερμηνευτού - Σούστα Σερίφου [Ναύτης Βαγγέλης]
TTITLE10=Κορρέ Λέττα - Καναρίνι μου γλυκό [παραδοσιακό]
TTITLE11=Μάγκελ Έλενα - Μάννα σγουρός βασιλικός [παραδοσιακό]
EXTD=
EXTT0=
EXTT1=
EXTT2=
EXTT3=
EXTT4=
EXTT5=
EXTT6=
EXTT7=
EXTT8=
EXTT9=
EXTT10=
EXTT11=
PLAYORDER=
